<svg width="62" height="62" viewBox="0 0 62 62" fill="none" xmlns="http://www.w3.org/2000/svg">
<g clip-path="url(#clip0_5008_11654)">
<path fill-rule="evenodd" clip-rule="evenodd" d="M12.0077 6.72351C3.25518 9.9438 0.432944 11.0363 0.24859 11.2758C-0.271551 11.9518 -0.167303 12.1636 3.09579 17.0569L6.19154 21.6993L5.81199 22.269C2.34863 27.4673 4.16854e-05 31.2202 4.16854e-05 31.5559C4.16854e-05 32.442 -0.116963 32.3914 12.0468 36.7659C18.3331 39.0266 23.661 40.8763 23.8866 40.8763C24.1123 40.8763 24.4094 40.8161 24.5468 40.7424C24.6844 40.6689 26.1949 38.4537 27.9036 35.8199L31.0102 31.0309L43.1788 26.4741C49.8715 23.9677 55.4745 21.8375 55.63 21.7403C55.7854 21.643 57.258 19.4589 58.9022 16.8867C60.5466 14.3145 61.9472 12.2441 62.0146 12.2858C62.0821 12.3274 62.1372 12.1382 62.1372 11.8653C62.1372 11.5923 62.0825 11.4029 62.0155 11.4441C61.9487 11.4854 61.8177 11.4274 61.7245 11.3151C61.6312 11.2027 61.5039 11.1108 61.4415 11.1108C61.3792 11.1108 56.0937 13.0876 49.6962 15.5036C38.9122 19.5762 38.0291 19.9336 37.5832 20.4074C37.3186 20.6885 35.7289 23.1787 34.0504 25.9415L30.9987 30.9645L18.6751 26.353C11.897 23.8166 6.41924 21.7006 6.50209 21.651C6.78849 21.479 30.8653 12.4825 31.0353 12.484C31.1291 12.4847 33.4186 13.317 36.1231 14.3335L41.0406 16.1815L47.1652 13.865C50.5337 12.5909 54.3083 11.1657 55.5531 10.698C56.7979 10.2302 57.8607 9.80664 57.9149 9.75657C58.0249 9.65493 38.4723 2.45772 38.1049 2.46485C37.4733 2.47678 37.1234 2.92258 34.1626 7.48548C32.4771 10.083 31.0539 12.2082 31 12.2082C30.9461 12.2082 29.523 10.083 27.8375 7.48548C25.9103 4.51538 24.6535 2.70832 24.4509 2.61601C24.2737 2.53535 23.9928 2.47308 23.8266 2.47788C23.6603 2.48254 18.3419 4.39316 12.0077 6.72351ZM0.0346081 12.0024C0.0361169 12.3042 0.0642364 12.4115 0.0970196 12.2408C0.129803 12.0702 0.128568 11.8233 0.0942762 11.6921C0.0599842 11.561 0.0330992 11.7007 0.0346081 12.0024ZM43.8938 28.7815L32.3031 33.1347L32.2682 46.333C32.249 53.5919 32.249 59.5309 32.2682 59.5306C32.2874 59.5304 37.4572 57.6483 43.7567 55.3482C52.7954 52.0481 55.2752 51.0922 55.5188 50.8146L55.8275 50.4627V37.4394C55.8275 27.109 55.7921 24.4174 55.656 24.4223C55.5618 24.4256 50.2687 26.3872 43.8938 28.7815ZM6.17261 43.8704V50.4627L6.48124 50.8114C6.72265 51.0842 9.2829 52.0699 18.239 55.3385C24.5361 57.6366 29.706 59.4992 29.7277 59.4776C29.7495 59.4559 29.7514 54.5121 29.7321 48.4913L29.6969 37.5445L28.3369 39.6562C26.2367 42.9171 25.8089 43.2684 23.9359 43.2706C22.8495 43.272 22.7576 43.2426 14.7456 40.3396C10.2945 38.7268 6.54461 37.3781 6.41265 37.3426C6.18646 37.2817 6.17261 37.6588 6.17261 43.8704Z" fill="white"/>
</g>
<defs>
<clipPath id="clip0_5008_11654">
<rect width="62" height="62" fill="white"/>
</clipPath>
</defs>
</svg>
