<svg width="100" height="100" viewBox="0 0 100 100" fill="none" xmlns="http://www.w3.org/2000/svg">
<path fill-rule="evenodd" clip-rule="evenodd" d="M46.2492 1.97404C45.7597 2.00321 44.9659 2.06782 44.4851 2.1176C43.6659 2.20238 43.5781 2.22502 43.0865 2.47715C39.1719 4.48533 35.3603 8.72883 32.3289 14.4538C31.317 16.3649 29.9996 19.2963 30.1056 19.4009C30.1841 19.4784 34.3096 20.2999 36.014 20.5775C39.3492 21.1208 43.6084 21.574 46.2394 21.6656L47.4376 21.7073L47.4005 19.3033C47.3801 17.9811 47.363 13.525 47.3626 9.40086C47.3618 2.29858 47.3559 1.90295 47.2505 1.9117C47.1893 1.91678 46.7387 1.94481 46.2492 1.97404ZM50.8582 11.7925V21.6869L51.3827 21.6865C51.9113 21.6863 53.7877 21.5846 54.2594 21.5307C54.3992 21.5148 55.0286 21.4569 55.658 21.4021C57.9239 21.2048 60.8335 20.8254 63.0006 20.4446C63.9854 20.2715 68.0038 19.4829 68.1305 19.4378C68.2172 19.407 68.016 18.8804 67.3507 17.3976C64.6939 11.4761 61.2865 6.80226 57.6287 4.06224C56.6667 3.34157 56.2917 3.09852 55.35 2.58552L54.6606 2.20993L53.8242 2.12363C53.3643 2.07613 52.6446 2.02039 52.2251 1.99972C51.8055 1.97911 51.3263 1.94779 51.1602 1.93016L50.8582 1.89807V11.7925ZM33.9797 4.33815C27.5844 6.45489 21.6495 9.9455 16.672 14.5176C16.2087 14.9432 15.8296 15.3163 15.8296 15.3467C15.8296 15.4586 20.7636 17.0182 23.6809 17.8286C24.8384 18.1501 26.5841 18.5902 26.6077 18.5666C26.6178 18.5564 26.8992 17.9011 27.2329 17.1103C28.7901 13.421 30.7422 9.93732 32.8025 7.17087C33.5043 6.22838 34.7635 4.72001 35.2134 4.28279C35.5424 3.96301 35.6005 3.86541 35.4577 3.87169C35.4141 3.87366 34.7489 4.08355 33.9797 4.33815ZM62.9668 4.20112C65.8607 7.46123 67.5754 9.99788 69.5335 13.9149C70.1914 15.2313 71.583 18.3542 71.583 18.5146C71.583 18.6112 71.5972 18.6084 73.0598 18.2279C75.2617 17.6551 78.1334 16.8052 80.4832 16.031C81.4447 15.7142 82.2815 15.4414 82.3427 15.4247C82.4039 15.408 82.4514 15.3763 82.4485 15.3541C82.4455 15.3321 82.0951 14.9942 81.6697 14.6034C77.2111 10.5066 72.2918 7.4275 66.6378 5.19458C65.6258 4.7949 62.9033 3.8682 62.7411 3.8682C62.7027 3.8682 62.8043 4.01798 62.9668 4.20112ZM12.6051 18.7224C6.53834 25.8128 2.6351 34.6561 1.52874 43.8175C1.38754 44.9867 1.29994 45.9924 1.23465 47.1941L1.19066 48.0026H11.1773H21.164L21.1963 47.7966C21.2141 47.6832 21.2453 47.0483 21.2657 46.3857C21.2862 45.723 21.3143 45.0239 21.3282 44.8321C21.3421 44.6402 21.3704 44.1694 21.3912 43.7858C21.7409 37.3061 22.8445 30.6699 24.5656 24.6989C24.8269 23.7921 25.1254 22.7934 25.229 22.4795C25.3326 22.1656 25.4094 21.9007 25.3998 21.8907C25.3901 21.8808 24.913 21.7477 24.3394 21.595C21.2372 20.7692 17.0763 19.5022 14.2354 18.5182C13.6282 18.3079 13.1259 18.1358 13.1191 18.1358C13.1125 18.1358 12.8811 18.3998 12.6051 18.7224ZM84.52 18.3317C84.0313 18.5139 82.3542 19.0695 80.0699 19.806C78.9769 20.1584 74.215 21.5267 73.3948 21.7241C73.15 21.783 72.9261 21.8522 72.8972 21.878C72.8682 21.9038 72.988 22.3922 73.1633 22.9632C74.0827 25.9578 74.6382 28.1564 75.3656 31.6796C75.7974 33.7707 76.293 37.2931 76.6051 40.4884C76.6766 41.2208 76.7478 41.9484 76.7632 42.1054C76.8483 42.9697 77.0483 46.9189 77.0498 47.7649L77.0502 48.0026H87.027H97.0036L97.0238 47.8283C97.0702 47.4258 96.8087 44.4399 96.5919 42.898C96.3602 41.2491 96.1012 39.9193 95.7027 38.3324C94.9022 35.1447 94.082 32.7824 92.7949 29.9575C91.3016 26.6801 89.5506 23.7437 87.4091 20.9259C86.3891 19.5838 85.1757 18.1328 85.0783 18.1389C85.0509 18.1406 84.7998 18.2273 84.52 18.3317ZM28.5532 23.5042C26.8874 28.8357 25.9377 33.3094 25.3011 38.8248C25.2618 39.1654 25.2188 39.5078 25.2055 39.5857C25.0472 40.5165 24.8209 43.8188 24.6969 47.0041L24.658 48.003L36.0258 47.987L47.3935 47.9709L47.4096 36.6236C47.4184 30.3826 47.4041 25.255 47.3778 25.229C47.3515 25.203 47.001 25.1647 46.5989 25.1439C43.4079 24.9784 41.7521 24.8447 39.4469 24.5668C37.4582 24.327 36.2155 24.1349 33.7378 23.6844C31.8649 23.3438 29.6487 22.9005 28.9718 22.7311C28.8103 22.6907 28.8034 22.7034 28.5532 23.5042ZM68.9129 22.8014C68.2366 22.9702 65.7158 23.4674 63.8022 23.8094C59.6433 24.5527 56.6401 24.883 51.637 25.1473L50.8582 25.1885V36.5956V48.0026H62.206H73.5537L73.5531 47.5112C73.5521 46.7647 73.4363 44.331 73.329 42.8029C72.8729 36.3041 71.6571 29.7388 69.8473 24.0017C69.5788 23.1505 69.417 22.7305 69.355 22.7239C69.3041 22.7186 69.1052 22.7534 68.9129 22.8014ZM1.23605 52.2988C1.42988 55.9033 1.98055 59.2544 2.94921 62.7242C4.58023 68.5664 7.48831 74.2997 11.2747 79.1377C11.7561 79.7527 13.0889 81.3571 13.1186 81.3571C13.1237 81.3571 13.4997 81.2245 13.9542 81.0624C15.8166 80.3983 21.1308 78.7519 23.2359 78.1869C23.3408 78.1588 23.7127 78.0604 24.0623 77.9683C25.1959 77.6699 25.4291 77.5999 25.4291 77.5578C25.4291 77.5351 25.3291 77.2231 25.2069 76.8646C24.9294 76.0506 24.6027 74.9193 24.069 72.9234C23.5834 71.1072 23.2593 69.6725 22.8586 67.5651C22.6995 66.7281 22.5546 65.9719 22.5366 65.8847C22.4968 65.6911 22.398 65.0668 22.346 64.6799C22.3249 64.5229 22.2962 64.3517 22.2821 64.2994C22.2378 64.1346 21.9408 61.8428 21.8095 60.6533C21.5446 58.2528 21.3433 55.4388 21.265 53.0439C21.2445 52.4161 21.2134 51.8097 21.1959 51.6964L21.164 51.4903H11.1783H1.19257L1.23605 52.2988ZM24.6966 52.489C24.8313 55.9747 25.1029 59.7046 25.3003 60.7801C25.3323 60.9545 25.376 61.2541 25.3975 61.4459C25.5106 62.4551 25.7799 64.2998 26.0087 65.6311C26.2465 67.0144 26.5606 68.6451 26.6377 68.8968C26.6697 69.0014 26.7099 69.1583 26.7268 69.2455C26.8678 69.9732 27.7683 73.5169 27.9654 74.1203C28.0295 74.3165 28.1261 74.6196 28.1801 74.794C28.6563 76.3323 28.8106 76.7915 28.8514 76.7915C28.8776 76.7915 29.0694 76.7472 29.2778 76.693C30.2892 76.4302 34.7142 75.5972 36.9676 75.2455C39.5102 74.8487 42.8978 74.516 45.7724 74.3807C46.5941 74.342 47.3022 74.2988 47.3458 74.2847C47.409 74.2643 47.4253 71.9262 47.4253 62.8746V51.4903H36.0416H24.658L24.6966 52.489ZM50.8582 62.9044V74.3184H51.109C52.8596 74.3184 57.4867 74.7157 60.3922 75.1155C62.4764 75.4023 69.0632 76.6202 69.2974 76.762C69.3995 76.8239 69.5015 76.596 69.8234 75.5867C70.3766 73.8521 70.8166 72.2394 71.415 69.7528C71.7683 68.2848 72.2989 65.4148 72.6048 63.3165C72.6761 62.8283 72.7738 62.1577 72.8221 61.8264C72.9126 61.2048 73.1174 59.303 73.2318 58.0217C73.3332 56.8856 73.4798 54.3219 73.5282 52.8378L73.5721 51.4903H62.2151H50.8582V62.9044ZM77.0239 52.489C76.9609 54.0759 76.8529 56.2421 76.831 56.36C76.8199 56.4195 76.7917 56.7249 76.7683 57.0388C76.5766 59.6049 76.2235 62.6656 75.8649 64.8701C75.777 65.4107 75.6921 65.9386 75.6764 66.0432C75.6465 66.2416 75.5853 66.5623 75.4647 67.1529C75.4256 67.3448 75.2515 68.2008 75.0779 69.0553C74.5918 71.4482 73.7991 74.4959 73.1169 76.595C72.7494 77.7257 72.662 77.5709 73.8398 77.8753C76.4463 78.5488 79.9188 79.5956 83.1965 80.6958L85.1151 81.3399L85.3332 81.1107C86.4647 79.9219 88.6425 76.9795 89.938 74.8891C93.3856 69.3264 95.6975 62.9697 96.5916 56.5949C96.796 55.138 96.9423 53.6136 96.9919 52.4256L97.0309 51.4903H87.0473H77.0637L77.0239 52.489ZM46.1539 77.7848C44.4054 77.8704 41.6187 78.102 40.2098 78.2787C37.5673 78.6101 32.8111 79.3949 31.7228 79.6791C31.5928 79.7131 30.1234 80.0255 30.0937 80.0255C29.9696 80.0255 30.3555 80.9576 31.4193 83.2278C32.8649 86.3124 34.7605 89.3333 36.7515 91.7249C37.4984 92.6221 39.3202 94.4213 40.1462 95.0775C41.045 95.7914 42.0652 96.4687 42.9272 96.9236L43.6103 97.2841L44.4848 97.3722C44.9657 97.4207 45.8242 97.4798 46.3924 97.5035L47.4257 97.5467L47.4096 87.6606L47.3935 77.7744L46.9803 77.7695C46.753 77.7668 46.3811 77.7737 46.1539 77.7848ZM50.8582 87.6349V97.5271L51.3191 97.5268C51.8634 97.5265 53.3265 97.4259 54.1256 97.3338C54.6326 97.2753 54.7576 97.2321 55.3335 96.9162C57.9377 95.4874 60.3193 93.334 62.5295 90.4098C64.2418 88.1442 65.645 85.7703 67.0322 82.7921C67.5347 81.7134 68.2136 80.1425 68.2136 80.0587C68.2136 80.0454 68.0491 80.0016 67.8481 79.9615C67.6471 79.9214 67.1249 79.8076 66.6879 79.7088C65.0682 79.3425 61.964 78.81 59.4724 78.4709C58.808 78.3806 58.193 78.2952 58.1055 78.2813C57.0404 78.1121 52.2371 77.7448 51.0649 77.743L50.8582 77.7427V87.6349ZM25.9695 81.0025C25.6898 81.0836 25.0175 81.2711 24.4755 81.4191C22.1613 82.0514 21.4011 82.2683 20.4704 82.5616C16.8608 83.699 15.8673 84.0251 15.7967 84.0956C15.7447 84.1474 17.2209 85.4986 18.4361 86.5116C22.6033 89.9852 27.3434 92.7235 32.4857 94.628C33.7268 95.0876 35.4509 95.6429 35.5425 95.6124C35.5753 95.6015 35.3275 95.293 34.9919 94.9269C32.5853 92.302 30.3085 88.8618 28.5082 85.1301C27.7066 83.4683 27.2601 82.4541 26.7497 81.1352C26.6957 80.9957 26.6125 80.8756 26.5648 80.8683C26.5171 80.8611 26.2492 80.9214 25.9695 81.0025ZM71.5577 81.0274C71.5053 81.1286 71.3494 81.4939 71.2113 81.8391C70.3278 84.0482 68.8658 86.9784 67.6549 88.9665C66.2469 91.2785 64.7937 93.2404 63.2033 94.9762C62.9069 95.2996 62.6839 95.5835 62.7076 95.6072C62.7818 95.6813 65.9573 94.5833 67.3874 93.989C71.6278 92.2268 75.462 89.9781 78.9436 87.2113C80.5389 85.9434 82.4879 84.19 82.4213 84.0825C82.3179 83.9156 76.5757 82.1588 73.2041 81.2626C72.4698 81.0674 71.8205 80.8933 71.7611 80.8756C71.6879 80.8538 71.6225 80.9027 71.5577 81.0274Z" fill="white"/>
</svg>
